<?xml version="1.0" encoding="utf-8"?>
<svg viewBox="0 0 60 60" xmlns="http://www.w3.org/2000/svg">
  <desc>İletişim Bilgileri için ikon</desc>
  <title>Contact_Icon</title>
  <path style="fill: none; stroke-linecap: round; stroke-linejoin: round; stroke: rgb(62, 62, 62);" d="M 60.379 21.491 L 42.88 15.298 L 54.83 0.197 L 41.008 17.34 L 10.951 7.811 L 19.726 38.784 L 59.863 27.169"/>
  <polyline style="fill: rgb(216, 216, 216); stroke: rgb(62, 62, 62);" points="10.961 7.791 36.759 -0.074"/>
  <polyline style="fill: rgb(216, 216, 216); stroke: rgb(62, 62, 62);" points="20.598 38.517 38.458 16.525"/>
  <path style="fill: none; stroke-linecap: round; stroke-linejoin: round; stroke: rgb(62, 62, 62);" d="M 0.037 17.421 C 0.269 17.549 11.393 20.974 11.314 25.725 C 11.249 29.646 6.531 31.938 6.531 35.725 C 6.531 39.71 11.814 42.814 14.233 44.173 C 18.729 46.699 23.609 50.427 28.705 49.639 C 34.42 48.755 31.903 41.143 36.532 39.266 C 39.879 37.909 43.58 41.012 45.953 42.418 C 47.258 43.191 50.444 45.629 50.836 47.823 C 52.174 55.316 46.174 57.665 40.319 60.015 M 16.768 59.83 C 13.507 58.794 9.152 57.329 0.067 48.72"/>
</svg>