<?xml version="1.0" encoding="utf-8"?>
<svg version="1.1" width="60px" height="60px" viewBox="0 0 60 60" xmlns="http://www.w3.org/2000/svg">
  <desc>Created with Fabric.js 1.7.22</desc>
  <g style="stroke: none; stroke-width: 0; stroke-dasharray: none; stroke-linecap: butt; stroke-linejoin: miter; stroke-miterlimit: 10; fill: none; fill-rule: nonzero; opacity: 1;" transform="matrix(0.556636, 0, 0, 0.556636, 4.951396, 4.951396)">
    <path d="M 54.98 0 L 17.086 0 C 13.161 0 9.968 3.193 9.968 7.118 L 9.968 82.882 C 9.968 86.807 13.161 90 17.086 90 L 54.98 90 C 58.905 90 62.098 86.807 62.098 82.882 L 62.098 68.192 C 62.098 67.639 61.651 67.192 61.098 67.192 C 60.545 67.192 60.098 67.639 60.098 68.192 L 60.098 76.088 L 11.968 76.088 L 11.968 12.418 L 60.098 12.418 L 60.098 68.999 C 60.098 69.551 60.545 69.999 61.098 69.999 C 61.651 69.999 62.098 69.551 62.098 68.999 L 62.098 7.118 C 62.099 3.193 58.905 0 54.98 0 Z M 60.099 78.087 L 60.099 82.882 C 60.099 85.704 57.803 88 54.981 88 L 17.086 88 C 14.264 88 11.968 85.704 11.968 82.882 L 11.968 78.087 L 60.099 78.087 Z M 11.968 10.417 L 11.968 7.118 C 11.968 4.296 14.264 2 17.086 2 L 54.98 2 C 57.802 2 60.098 4.296 60.098 7.118 L 60.098 10.417 L 11.968 10.417 Z" style="stroke: none; stroke-width: 1; stroke-dasharray: none; stroke-linecap: butt; stroke-linejoin: miter; stroke-miterlimit: 10; fill: rgb(0,0,0); fill-rule: nonzero; opacity: 1;" transform=" matrix(1 0 0 1 0 0) " stroke-linecap="round"/>
    <circle cx="36.03" cy="83.04" r="2" style="stroke: none; stroke-width: 1; stroke-dasharray: none; stroke-linecap: butt; stroke-linejoin: miter; stroke-miterlimit: 10; fill: rgb(0,0,0); fill-rule: nonzero; opacity: 1;" transform="  matrix(1 0 0 1 0 0) "/>
    <path d="M 38.203 7.254 H 27.147 c -0.552 0 -1 -0.448 -1 -1 s 0.448 -1 1 -1 h 11.055 c 0.552 0 1 0.448 1 1 S 38.755 7.254 38.203 7.254 z" style="stroke: none; stroke-width: 1; stroke-dasharray: none; stroke-linecap: butt; stroke-linejoin: miter; stroke-miterlimit: 10; fill: rgb(0,0,0); fill-rule: nonzero; opacity: 1;" transform=" matrix(1 0 0 1 0 0) " stroke-linecap="round"/>
    <circle cx="42.92" cy="6.25" r="1.5" style="stroke: none; stroke-width: 1; stroke-dasharray: none; stroke-linecap: butt; stroke-linejoin: miter; stroke-miterlimit: 10; fill: rgb(0,0,0); fill-rule: nonzero; opacity: 1;" transform="  matrix(1 0 0 1 0 0) "/>
    <path d="M 67.663 26.133 C 67.437 26.133 67.213 26.047 67.041 25.876 C 66.698 25.533 66.698 24.978 67.041 24.635 C 70.793 20.883 70.793 14.775 67.041 11.022 C 66.698 10.679 66.698 10.124 67.041 9.781 C 67.384 9.436 67.939 9.436 68.284 9.781 C 72.722 14.219 72.722 21.439 68.284 25.876 C 68.111 26.047 67.887 26.133 67.663 26.133 Z" style="stroke: none; stroke-width: 1; stroke-dasharray: none; stroke-linecap: butt; stroke-linejoin: miter; stroke-miterlimit: 10; fill: rgb(0,0,0); fill-rule: nonzero; opacity: 1;" stroke-linecap="round"/>
    <path d="M 74.764 33.236 C 74.54 33.236 74.314 33.15 74.143 32.979 C 73.8 32.636 73.8 32.081 74.143 31.736 C 81.811 24.068 81.811 11.589 74.143 3.92 C 73.8 3.575 73.8 3.021 74.143 2.678 C 74.486 2.335 75.042 2.335 75.385 2.678 C 83.738 11.032 83.738 24.624 75.385 32.979 C 75.214 33.15 74.988 33.236 74.764 33.236 Z" style="stroke: none; stroke-width: 1; stroke-dasharray: none; stroke-linecap: butt; stroke-linejoin: miter; stroke-miterlimit: 10; fill: rgb(0,0,0); fill-rule: nonzero; opacity: 1;" stroke-linecap="round"/>
    <path d="M 82.028 40.5 C 81.804 40.5 81.579 40.415 81.407 40.243 C 81.064 39.9 81.064 39.345 81.407 39.001 C 87.063 33.346 90.178 25.827 90.178 17.827 C 90.178 9.83 87.063 2.31 81.407 -3.344 C 81.064 -3.689 81.064 -4.244 81.407 -4.587 C 81.75 -4.93 82.307 -4.93 82.65 -4.587 C 88.636 1.4 91.935 9.361 91.935 17.827 C 91.935 26.296 88.636 34.256 82.65 40.243 C 82.478 40.415 82.254 40.5 82.028 40.5 Z" style="stroke: none; stroke-width: 1; stroke-dasharray: none; stroke-linecap: butt; stroke-linejoin: miter; stroke-miterlimit: 10; fill: rgb(0,0,0); fill-rule: nonzero; opacity: 1;" stroke-linecap="round"/>
  </g>
</svg>