<?xml version="1.0" encoding="utf-8"?>
<svg viewBox="0 0 130 130" xmlns="http://www.w3.org/2000/svg">
  <path d="M 42.241 3.484 C 43.569 6.716 69.128 44.416 77.261 57.852 C 87.967 75.541 81.406 98.319 62.572 105.763 C 41.072 114.259 19.839 99.86 18.053 78.638 C 17.439 71.316 19.161 64.735 22.853 58.449 C 30.517 45.424 36.738 32.632 40.556 22.782 C 43.5 15.187 44.037 15.129 42.241 3.484 Z M 45.895 29.524 C 45.557 29.335 45.214 29.142 44.876 28.949 C 44.288 29.76 43.632 30.535 43.117 31.389 C 37.514 40.699 32.006 50.063 26.321 59.32 C 23.696 63.593 21.847 68.064 21.25 73.06 C 20.806 76.824 22.206 80.12 25.176 81.885 C 27.799 83.441 31.572 83.238 34.028 81.409 C 36.81 79.327 37.864 76.02 36.795 72.238 C 35.157 66.452 35.228 60.702 37.089 55.002 C 38.585 50.416 40.239 45.878 41.821 41.32 C 43.184 37.389 44.539 33.46 45.895 29.524 Z" style="fill: rgb(51, 51, 51);"/>
  <path d="M 75.652 31.515 C 76.856 34.445 100.034 68.634 107.409 80.819 C 117.119 96.86 111.169 117.516 94.09 124.267 C 74.591 131.972 55.336 118.914 53.717 99.67 C 53.159 93.029 54.721 87.062 58.07 81.36 C 65.021 69.548 70.662 57.948 74.123 49.015 C 76.793 42.128 77.281 42.076 75.652 31.515 Z M 73.188 120.591 C 76.817 124.967 88.91 124.037 95.996 119.502 C 102.493 115.345 108.06 106.776 106.202 102.798 C 99.225 116.082 88.195 121.821 73.188 120.591 Z" style="fill: rgb(42, 171, 225); paint-order: fill; fill-rule: evenodd;"/>
  <path d="M 78.65 55.129 C 78.344 54.959 78.033 54.783 77.726 54.609 C 77.194 55.344 76.598 56.047 76.132 56.821 C 71.05 65.263 66.056 73.756 60.9 82.15 C 58.519 86.025 56.842 90.08 56.3 94.611 C 55.898 98.024 57.167 101.013 59.862 102.615 C 62.24 104.025 65.661 103.841 67.889 102.183 C 70.411 100.294 71.367 97.296 70.398 93.866 C 68.913 88.617 68.977 83.404 70.665 78.235 C 72.022 74.075 73.522 69.96 74.956 65.827 C 76.192 62.262 77.421 58.7 78.65 55.129 Z" style="fill: rgb(255, 255, 255); paint-order: fill;"/>
</svg>