<?xml version="1.0" encoding="utf-8"?>
<svg viewBox="0 333.387 810.497 154.402" style="enable-background:new 0 0 612 792;" xmlns="http://www.w3.org/2000/svg">
  <path d="M 48.090705 -6.700278 L 48.090705 0 L 8.213244 0 L 8.213244 -66.246297 L 46.253532 -66.246297 L 46.253532 -59.546019 L 21.829938 -59.546019 L 21.829938 -37.067667 L 43.767945 -37.067667 L 43.767945 -30.367389 L 21.829938 -30.367389 L 21.829938 -6.700278 Z M 103.86917039648438 -56.736225 L 87.98302739648437 -0.216138 L 87.98302739648437 0 L 76.09543739648437 0 L 60.209294396484374 -57.708846 L 58.912466396484376 0 L 50.69922239648437 0 L 52.53639539648437 -66.246297 L 70.04357339648438 -66.246297 L 84.09254339648437 -14.697384 L 98.35765139648437 -66.246297 L 116.72938139648437 -66.246297 L 118.67462339648438 0 L 105.05792939648438 0 Z" transform="matrix(1.3879830837249756, 0, 0, 1.387997031211853, 0, 449.9476318359375)" style="fill: rgb(51, 51, 51); line-height: 172.911px; white-space: pre;"/>
  <path d="M 131.71790744238282 -51.553428000000004 Q 128.7251054423828 -51.553428000000004 126.60118144238281 -53.677352 Q 124.47725744238281 -55.801276 124.47725744238281 -58.697536 Q 124.47725744238281 -61.786880000000004 126.60118144238281 -63.910804 Q 128.7251054423828 -66.034728 131.71790744238282 -66.034728 Q 134.7107094423828 -66.034728 136.88290444238282 -63.910804 Q 139.0550994423828 -61.786880000000004 139.0550994423828 -58.697536 Q 139.0550994423828 -55.704734 136.88290444238282 -53.629081 Q 134.7107094423828 -51.553428000000004 131.71790744238282 -51.553428000000004 Z M 137.70351144238282 0 L 125.73230344238281 0 L 125.73230344238281 -46.340160000000004 L 137.70351144238282 -46.340160000000004 Z" transform="matrix(1.3879830837249756, 0, 0, 1.387997031211853, 0, 449.9476318359375)" style="fill: rgb(51, 51, 51); line-height: 172.911px; white-space: pre;"/>
  <path d="M 199.18930406152344 -66.246297 L 199.18930406152344 0 L 184.70805806152345 0 L 154.55680706152344 -52.305396 L 154.55680706152344 0 L 146.45163206152344 0 L 146.45163206152344 -66.246297 L 160.82480906152344 -66.246297 L 191.08412906152344 -13.940901 L 191.08412906152344 -66.246297 Z" transform="matrix(1.3879830837249756, 0, 0, 1.387997031211853, 0, 449.9476318359375)" style="fill: rgb(51, 51, 51); line-height: 172.911px; white-space: pre;"/>
  <path d="M 28.206008999999998 -67.543125 Q 38.796771 -67.543125 44.524428 -62.6259855 Q 50.252085 -57.708846 51.656982 -47.442291 L 40.633944 -45.929325 Q 40.093599 -53.602224 36.851529 -57.816915 Q 33.609459 -62.031606 28.09794 -62.031606 Q 22.370283 -62.031606 19.1822475 -59.113743 Q 15.994212 -56.19588 15.994212 -51.008568 Q 15.994212 -47.766498 17.182971 -45.7672215 Q 18.37173 -43.767945 21.073455 -42.4170825 Q 23.77518 -41.06622 28.854423 -39.769391999999996 L 34.58208 -38.256426 Q 44.092152 -35.878908 48.090705 -31.34001 Q 52.089258 -26.801112 52.089258 -18.37173 Q 52.089258 -8.861658 45.8752905 -3.782415 Q 39.661322999999996 1.296828 27.989871 1.296828 Q 16.750695 1.296828 10.8069 -3.6203115 Q 4.863105 -8.537450999999999 3.674346 -18.804006 L 14.481246 -20.425041 Q 15.237729 -12.536004 18.695937 -8.3753475 Q 22.154145 -4.214691 27.989871 -4.214691 Q 34.257873 -4.214691 37.608012 -7.0785195 Q 40.958151 -9.942347999999999 40.958151 -15.345798 Q 40.958151 -18.587868 39.769391999999996 -20.53311 Q 38.580633 -22.478352 35.770839 -23.8292145 Q 32.961045 -25.180077 27.449526 -26.476905 L 22.370283 -27.773733 Q 12.96828 -29.935113 9.023761499999999 -34.5280455 Q 5.079243 -39.120978 5.079243 -47.766498 Q 5.079243 -57.600777 10.914969 -62.571951 Q 16.750695 -67.543125 28.206008999999998 -67.543125 Z" transform="matrix(1.3879830837249756, 0, 0, 1.387997031211853, 284.031494140625, 449.9776306152344)" style="fill: rgb(42, 171, 225); line-height: 172.911px; white-space: pre;"/>
  <path d="M 62.09511173095703 -51.938175 Q 59.079974230957035 -51.938175 56.940199230957035 -54.07795 Q 54.800424230957034 -56.217725 54.800424230957034 -59.135600000000004 Q 54.800424230957034 -62.248000000000005 56.940199230957035 -64.387775 Q 59.079974230957035 -66.52755 62.09511173095703 -66.52755 Q 65.11024923095704 -66.52755 67.29865548095702 -64.387775 Q 69.48706173095704 -62.248000000000005 69.48706173095704 -59.135600000000004 Q 69.48706173095704 -56.1204625 67.29865548095702 -54.02931875 Q 65.11024923095704 -51.938175 62.09511173095703 -51.938175 Z M 68.12538673095703 0 L 56.06483673095703 0 L 56.06483673095703 -46.686 L 68.12538673095703 -46.686 Z" transform="matrix(1.3879830837249756, 0, 0, 1.387997031211853, 284.031494140625, 449.9776306152344)" style="fill: rgb(42, 171, 225); line-height: 172.911px; white-space: pre;"/>
  <path d="M 90.54946619824219 -58.681467 L 90.54946619824219 -37.391874 L 109.89381719824219 -37.391874 L 109.89381719824219 -29.827044 L 90.54946619824219 -29.827044 L 90.54946619824219 0 L 76.93277219824219 0 L 76.93277219824219 -66.246297 L 113.13588719824219 -66.246297 L 113.13588719824219 -58.681467 Z M 139.95825111816407 1.296828 Q 125.90928111816406 1.296828 119.26303761816406 -7.0785195 Q 112.61679411816407 -15.453866999999999 112.61679411816407 -33.069114 Q 112.61679411816407 -50.900498999999996 119.26303761816406 -59.221812 Q 125.90928111816406 -67.543125 139.95825111816407 -67.543125 Q 154.00722111816407 -67.543125 160.70749911816407 -59.1677775 Q 167.40777711816406 -50.792429999999996 167.40777711816406 -33.069114 Q 167.40777711816406 -15.453866999999999 160.76153361816407 -7.0785195 Q 154.11529011816407 1.296828 139.95825111816407 1.296828 Z M 139.95825111816407 -4.214691 Q 146.98273611816407 -4.214691 150.38690961816405 -11.347245 Q 153.79108311816407 -18.479799 153.79108311816407 -33.069114 Q 153.79108311816407 -47.874567 150.38690961816405 -54.9530865 Q 146.98273611816407 -62.031606 139.95825111816407 -62.031606 Q 132.93376611816407 -62.031606 129.58362711816406 -55.007121 Q 126.23348811816406 -47.982636 126.23348811816406 -33.069114 Q 126.23348811816406 -18.263661 129.58362711816406 -11.239176 Q 132.93376611816407 -4.214691 139.95825111816407 -4.214691 Z M 225.99487657128907 -66.246297 L 225.99487657128907 0 L 211.51363057128907 0 L 181.36237957128907 -52.305396 L 181.36237957128907 0 L 173.25720457128907 0 L 173.25720457128907 -66.246297 L 187.63038157128906 -66.246297 L 217.88970157128907 -13.940901 L 217.88970157128907 -66.246297 Z" transform="matrix(1.3879830837249756, 0, 0, 1.387997031211853, 284.031494140625, 449.9776306152344)" style="fill: rgb(42, 171, 225); line-height: 172.911px; white-space: pre;"/>
  <path d="M 240.54748142089844 -51.938175 Q 237.53234392089843 -51.938175 235.39256892089844 -54.07795 Q 233.25279392089843 -56.217725 233.25279392089843 -59.135600000000004 Q 233.25279392089843 -62.248000000000005 235.39256892089844 -64.387775 Q 237.53234392089843 -66.52755 240.54748142089844 -66.52755 Q 243.56261892089844 -66.52755 245.75102517089843 -64.387775 Q 247.93943142089844 -62.248000000000005 247.93943142089844 -59.135600000000004 Q 247.93943142089844 -56.1204625 245.75102517089843 -54.02931875 Q 243.56261892089844 -51.938175 240.54748142089844 -51.938175 Z M 246.57775642089842 0 L 234.51720642089845 0 L 234.51720642089845 -46.686 L 246.57775642089842 -46.686 Z" transform="matrix(1.3879830837249756, 0, 0, 1.387997031211853, 284.031494140625, 449.9776306152344)" style="fill: rgb(42, 171, 225); line-height: 172.911px; white-space: pre;"/>
  <path d="M 271.16320825878904 -30.367389 L 269.00182825878903 -30.367389 L 269.00182825878903 0 L 255.38513425878907 0 L 255.38513425878907 -66.246297 L 269.00182825878903 -66.246297 L 269.00182825878903 -37.067667 L 276.45858925878906 -37.067667 L 295.2625952587891 -66.246297 L 303.25970125878905 -66.246297 L 282.8346602587891 -34.798218 L 304.88073625878906 0 L 290.50755925878906 0 Z" transform="matrix(1.3879830837249756, 0, 0, 1.387997031211853, 284.031494140625, 449.9776306152344)" style="fill: rgb(42, 171, 225); line-height: 172.911px; white-space: pre;"/>
  <path d="M 735.207 346.087 C 736.535 349.319 762.094 387.019 770.227 400.455 C 780.933 418.144 774.372 440.922 755.538 448.366 C 734.038 456.862 712.805 442.463 711.019 421.241 C 710.405 413.919 712.127 407.338 715.819 401.052 C 723.483 388.027 729.704 375.235 733.522 365.385 C 736.466 357.79 737.003 357.732 735.207 346.087 Z M 738.861 372.127 C 738.523 371.938 738.18 371.745 737.842 371.552 C 737.254 372.363 736.598 373.138 736.083 373.992 C 730.48 383.302 724.972 392.666 719.287 401.923 C 716.662 406.196 714.813 410.667 714.216 415.663 C 713.772 419.427 715.172 422.723 718.142 424.488 C 720.765 426.044 724.538 425.841 726.994 424.012 C 729.776 421.93 730.83 418.623 729.761 414.841 C 728.123 409.055 728.194 403.305 730.055 397.605 C 731.551 393.019 733.205 388.481 734.787 383.923 C 736.15 379.992 737.505 376.063 738.861 372.127 Z" style="fill: rgb(51, 51, 51);"/>
  <path d="M 768.618 374.118 C 769.822 377.048 793 411.237 800.375 423.422 C 810.085 439.463 804.135 460.119 787.056 466.87 C 767.557 474.575 748.302 461.517 746.683 442.273 C 746.125 435.632 747.687 429.665 751.036 423.963 C 757.987 412.151 763.628 400.551 767.089 391.618 C 769.759 384.731 770.247 384.679 768.618 374.118 Z M 766.154 463.194 C 769.783 467.57 781.876 466.64 788.962 462.105 C 795.459 457.948 801.026 449.379 799.168 445.401 C 792.191 458.685 781.161 464.424 766.154 463.194 Z" style="fill: rgb(42, 171, 225); paint-order: fill; fill-rule: evenodd;"/>
  <path d="M 771.616 397.732 C 771.31 397.562 770.999 397.386 770.692 397.212 C 770.16 397.947 769.564 398.65 769.098 399.424 C 764.016 407.866 759.022 416.359 753.866 424.753 C 751.485 428.628 749.808 432.683 749.266 437.214 C 748.864 440.627 750.133 443.616 752.828 445.218 C 755.206 446.628 758.627 446.444 760.855 444.786 C 763.377 442.897 764.333 439.899 763.364 436.469 C 761.879 431.22 761.943 426.007 763.631 420.838 C 764.988 416.678 766.488 412.563 767.922 408.43 C 769.158 404.865 770.387 401.303 771.616 397.732 Z" style="fill: rgb(255, 255, 255); paint-order: fill;"/>
</svg>