<?xml version="1.0" encoding="utf-8"?>
<svg viewBox="0 0 60 60" width="60" height="60" style="enable-background:new 0 0 297 297;" xmlns="http://www.w3.org/2000/svg">
  <path style="stroke: rgb(0, 0, 0); fill: none; stroke-linecap: round; stroke-width: 2px;" d="M 54.001 13 C 54.001 13 60.1723603880862 19.12386136227128 62.753 22.578 C 65.34319053345266 26.044922370475035 67.95789414437215 30.22499754491453 69.506 33.769 C 70.76073438756188 36.641401608607076 71.61786458453437 39.22785685050413 71.885 42.019 C 72.15040423504513 44.792055048512175 71.98785052602057 47.85979795930806 71.124 50.46 C 70.26653277543224 53.04098821496154 68.54328015172813 55.71292101920936 66.748 57.572 C 65.12159681633219 59.25620063583797 63.12746018564921 60.46233732086582 61.04 61.365 C 58.90356608306491 62.28883997381676 56.38852814473631 62.99641216623548 54.05 63 C 51.69597488131259 63.00361160964531 49.12044045589283 62.29442792319042 46.962 61.365 C 44.86692141471098 60.46285579994587 42.8804031836678 59.25620063583798 41.254 57.572 C 39.45871984827188 55.71292101920936 37.73546722456774 53.04098821496156 36.878 50.46 C 36.01414947397941 47.85979795930806 35.85159576495488 44.792055048512175 36.117 42.019 C 36.384135415465636 39.22785685050414 37.241265612438134 36.641401608607076 38.496 33.769 C 40.04410585562784 30.22499754491453 42.65880946654735 26.044922370475046 45.249 22.578 C 47.82963961191382 19.123861362271274 54.001 13 54.001 13 C 54.001000000000005 13 54.001 12.999999999999998 54.001 13" transform="matrix(-1, 0, 0, -1, 84.001396, 66.000015)"/>
  <ellipse style="stroke: rgb(0, 0, 0); fill: none; stroke-width: 2px;" cx="30" cy="20" rx="7" ry="7"/>
  <path d="M 41 42.377 C 48 43.377 53 46.791 53 49 C 53 51.209 50.426 53.209 46.263 54.657 C 42.101 56.105 36.351 57 30 57 C 23.649 57 17.899 56.105 13.737 54.657 C 9.574 53.209 7 51.209 7 49 C 7 46.791 12 43.377 19 42.377" style="stroke: rgb(0, 0, 0); fill: none; stroke-width: 2px;"/>
</svg>